# generated from PmQm by Jehee Lee
:FULLY-SPECIFIED
:DEGREES
511
root -42.49004663 38.3992 -50.13872996 -178.7013299 3.817372628 -177.6693738
RightUpLeg -0.4006708967 -5.441220368 10.97255673
RightLeg 28.4979225 0 0
RightFoot -29.7359381 46.15475177 -37.37433103
RightToes 2.32829e-010 -1.59028e-015 9.93923e-017
Spine -12.9619 6.48979 14.6785
Spine1 16.9032 8.37685 -10.7635
HEad -9.95357 -5.53207 1.71529
LeftShoulder1 9.93923e-017 0 1.22299e-017
LeftArm -10.4968 54.0093 -66.1619
LeftForeArm -4.69278 -3.83271 -5.16164
LeftHand 0.972732 6.82958 -4.8704
RightShoulder 1.98785e-016 -4.96962e-017 1.55301e-017
RightArm 21.128 -23.8806 83.8761
RightForeArm -46.265 25.967 -23.8724
RightHand 1.1413 -10.0446 -6.63461
LeftUpLeg -26.01983041 -2.79509238 0.03350449114
LeftLeg -0.1541474859 0 0
LeftFoot 8.651421925 1.45887868 -3.437714243
LeftToes 8.82235e-011 9.04645e-011 1.87288e-011
512
root -42.34027353 38.39620523 -51.34688622 -179.175741 4.155737542 179.4792474
RightUpLeg -1.001680986 -6.57540978 7.741834813
RightLeg 33.87645023 0 0
RightFoot -22.52595244 45.13696308 -37.12062436
RightToes 1.16414e-010 -1.59028e-015 9.93923e-017
Spine -11.64614144 5.39560068 10.40005667
Spine1 15.94792099 7.769933688 -10.75470904
HEad -10.36715089 -5.030482538 2.141839239
LeftShoulder1 9.93923e-017 0 1.22299e-017
LeftArm -10.19167198 51.56006192 -67.05686342
LeftForeArm -5.652650382 -4.238630611 -5.295601506
LeftHand 0.9458139422 6.487438847 -4.367644168
RightShoulder 1.98785e-016 -4.96962e-017 1.55301e-017
RightArm 24.91282141 -25.86306682 86.06499898
RightForeArm -49.59159878 23.50477253 -22.16516889
RightHand 1.180003193 -10.08847718 -6.842972994
LeftUpLeg -26.56093101 -3.493997439 -1.388254054
LeftLeg 6.078587911 0 0
LeftFoot 6.348121253 2.585416487 -3.30843257
LeftToes 3.91108e-011 -1.31389e-011 5.36976e-012
513
root -42.20198465 38.3994835 -52.40891631 -179.7262254 3.790591487 177.4341206
RightUpLeg -3.729324868 -6.186195675 6.439787063
RightLeg 40.96076231 0 0
RightFoot -12.7622777 40.01679188 -36.75444793
RightToes 1.16414e-010 -1.59028e-015 9.93923e-017
Spine -10.07777189 4.067615624 6.934058853
Spine1 14.98157091 6.626673942 -11.27597795
HEad -9.964327066 -3.983292016 2.02282251
LeftShoulder1 9.93923e-017 0 1.22299e-017
LeftArm -8.402794754 47.99231416 -68.23738558
LeftForeArm -6.95649876 -4.8185297 -5.735569963
LeftHand 0.9746946292 6.439945951 -4.402249447
RightShoulder 1.98785e-016 -4.96962e-017 1.55301e-017
RightArm 29.19926569 -28.8831251 87.78920107
RightForeArm -53.03334459 21.23046637 -19.55476343
RightHand 1.235337225 -10.06401744 -6.272156486
LeftUpLeg -26.41912083 -3.982428891 -2.407315927
LeftLeg 10.87440737 0 0
LeftFoot 3.65562211 2.591041129 -2.452716013
LeftToes 3.91108e-011 -1.31389e-011 5.36976e-012
514
root -42.06657665 38.41867976 -53.4081675 179.7542952 3.742361941 177.1641099
RightUpLeg -8.039409806 -3.765600733 5.236730682
RightLeg 50.52004297 -2.737061999 -5.387263013
RightFoot -8.580221172 41.07417 -28.9506404
RightToes 1.16414e-010 -1.59028e-015 9.93923e-017
Spine -8.847638032 3.226140317 5.650222032
Spine1 14.28986867 5.607145575 -11.56857457
HEad -8.773785847 -2.938558296 1.194853335
LeftShoulder1 9.93923e-017 0 1.22299e-017
LeftArm -5.357382627 44.08187579 -70.34223558
LeftForeArm -9.480435858 -7.039655347 -5.601024863
LeftHand 1.009019965 6.521687223 -4.274619939
RightShoulder 1.98785e-016 -4.96962e-017 1.55301e-017
RightArm 27.19494095 -32.67596954 87.50705414
RightForeArm -49.20625696 20.60187784 -14.39488453
RightHand 1.208146176 -9.851015462 -4.765220982
LeftUpLeg -25.77730008 -3.576329634 -1.796949831
LeftLeg 14.53537963 0 0
LeftFoot 2.955172603 1.787415484 -0.9920202503
LeftToes 3.91108e-011 -1.31389e-011 5.36976e-012
515
root -41.94445159 38.53985237 -54.34162493 179.3359756 4.432772028 177.8490808
RightUpLeg -11.84292942 -0.5531438596 4.790034679
RightLeg 56.59401399 -4.630755694 -10.73308964
RightFoot -7.56082918 37.8404135 -25.77625925
RightToes 1.16414e-010 -1.59028e-015 9.93923e-017
Spine -8.16945334 2.835038208 4.85109722
Spine1 13.82769458 4.792805566 -10.62559488
HEad -7.267113704 -1.923489896 0.4170626308
LeftShoulder1 9.93923e-017 0 1.22299e-017
LeftArm -0.6334590596 40.83642395 -73.16253891
LeftForeArm -14.13119668 -11.47984878 -3.806403856
LeftHand 0.9729555995 6.25255882 -3.501614699
RightShoulder 1.98785e-016 -4.96962e-017 1.55301e-017
RightArm 26.2980693 -36.61497003 86.89500709
RightForeArm -46.04520985 20.06530544 -10.79186061
RightHand 1.115497071 -9.575789077 -3.142452024
LeftUpLeg -24.26362803 -2.515303424 -0.4261022049
LeftLeg 16.04460202 0 0
LeftFoot 3.968167516 1.195200339 0.07414122206
LeftToes 3.91108e-011 -1.31389e-011 5.36976e-012
516
root -41.83968732 38.75015956 -55.20590547 179.0519406 5.061499937 178.4824729
RightUpLeg -14.85929313 1.980977439 4.181709235
RightLeg 59.27290443 -5.454335311 -14.22391993
RightFoot -7.999564382 33.85571939 -22.42266585
RightToes 1.16414e-010 -1.59028e-015 9.93923e-017
Spine -7.895251452 2.285051499 3.177468515
Spine1 13.36987977 3.707038966 -8.464363238
HEad -5.965110019 -0.7633568126 0.3588099323
LeftShoulder1 9.93923e-017 0 1.22299e-017
LeftArm 6.381356396 38.34969816 -75.77819818
LeftForeArm -21.8887188 -16.6384458 0.1159475283
LeftHand 0.8602285065 5.539841938 -2.546780865
RightShoulder 1.98785e-016 -4.96962e-017 1.55301e-017
RightArm 27.79161358 -40.08849309 86.35657259
RightForeArm -44.84665996 19.70922421 -9.117287349
RightHand 1.042207396 -9.486977203 -2.3947132
LeftUpLeg -22.22397807 -1.583845941 0.5375911813
LeftLeg 15.92387995 0 0
LeftFoot 4.702116597 0.9253297624 0.4460632211
LeftToes 3.91108e-011 -1.31389e-011 5.36976e-012
517
root -41.7454423 38.97975894 -56.01029372 178.7618408 4.916919631 178.9507227
RightUpLeg -16.88815709 2.970575668 3.327728073
RightLeg 58.54552278 -4.857028111 -14.12904674
RightFoot -8.025274379 29.61706708 -17.15423328
RightToes 1.16414e-010 -1.59028e-015 9.93923e-017
Spine -7.543571321 1.270117473 1.156217209
Spine1 12.67186152 2.196317119 -6.044716666
HEad -4.964693532 0.4890800255 0.7599273957
LeftShoulder1 9.93923e-017 0 1.22299e-017
LeftArm 13.80315623 36.08974279 -77.3499261
LeftForeArm -30.6869387 -20.30762995 4.756996542
LeftHand 0.7691082449 4.986907364 -2.256770932
RightShoulder 1.98785e-016 -4.96962e-017 1.55301e-017
RightArm 28.84929618 -43.23086221 85.76651543
RightForeArm -43.94151609 19.48426981 -8.380344413
RightHand 1.022244264 -9.620809654 -2.617141442
LeftUpLeg -19.9607164 -1.126341855 0.9884035014
LeftLeg 14.93960924 0 0
LeftFoot 5.107667757 0.4391402188 0.7687702221
LeftToes 3.91108e-011 -1.31389e-011 5.36976e-012
518
root -41.65788683 39.17860801 -56.7496568 178.4809506 4.326411988 179.5445037
RightUpLeg -17.91792214 2.88917957 2.668765578
RightLeg 54.72774705 -3.490593645 -11.47112054
RightFoot -7.765988512 25.09754864 -11.66561789
RightToes 1.16414e-010 -1.59028e-015 9.93923e-017
Spine -6.899987004 0.161379434 -0.1523033172
Spine1 11.74049934 0.7158894844 -4.200688159
HEad -4.188339286 1.544252813 0.9795766751
LeftShoulder1 9.93923e-017 0 1.22299e-017
LeftArm 19.84304498 33.795494 -77.90942533
LeftForeArm -37.8894361 -22.2958116 8.389663089
LeftHand 0.7669871229 5.004608659 -2.724981299
RightShoulder 1.98785e-016 -4.96962e-017 1.55301e-017
RightArm 27.92036738 -46.25980398 84.92502148
RightForeArm -43.08854849 19.3290573 -8.176493918
RightHand 1.019538708 -9.717753635 -3.146652745
LeftUpLeg -17.91397741 -0.8697334352 1.473185766
LeftLeg 13.896405 0 0
LeftFoot 5.638776676 -0.3565990458 1.253157521
LeftToes 3.91108e-011 -1.31389e-011 5.36976e-012
